<?xml version="1.0" encoding="utf-8"?>
<!-- Generator: Adobe Illustrator 17.0.0, SVG Export Plug-In . SVG Version: 6.00 Build 0)  -->
<!DOCTYPE svg PUBLIC "-//W3C//DTD SVG 1.1//EN" "http://www.w3.org/Graphics/SVG/1.1/DTD/svg11.dtd">
<svg version="1.1" id="Layer_1" xmlns="http://www.w3.org/2000/svg" xmlns:xlink="http://www.w3.org/1999/xlink" x="0px" y="0px"
	 width="30px" height="30px" viewBox="0 0 30 30" enable-background="new 0 0 30 30" xml:space="preserve">
<path fill="#DDCD37" stroke="#DDCD37" d="M23.02,29c-0.308,0-0.583-0.068-0.857-0.208l-6.895-3.737c-0.24-0.138-0.514-0.138-0.754,0
	l-6.93,3.634c-0.754,0.38-1.714,0.207-2.229-0.45c-0.343-0.416-0.479-0.968-0.377-1.489l1.372-7.785
	c0.034-0.278-0.034-0.521-0.24-0.727L0.553,12.7c-0.515-0.484-0.686-1.211-0.446-1.903c0.206-0.658,0.789-1.143,1.475-1.247
	l7.752-1.072c0.274-0.034,0.48-0.207,0.617-0.449l3.465-7.026C13.725,0.38,14.342,0,15.062,0c0.721,0,1.338,0.38,1.646,1.038
	l3.43,7.094c0.104,0.242,0.344,0.417,0.584,0.45l7.717,1.177c0.686,0.104,1.269,0.588,1.475,1.246s0.034,1.384-0.48,1.869
	l-5.625,5.502c-0.172,0.172-0.274,0.449-0.24,0.692l1.269,7.787c0.104,0.554-0.068,1.072-0.412,1.488
	C24.083,28.758,23.569,29,23.02,29z"/>
</svg>
